<svg width="32" height="32" viewBox="0 0 32 32" fill="none" xmlns="http://www.w3.org/2000/svg">
<rect width="32" height="32" rx="4" fill="#8DD0BC"/>
<path d="M11.3671 22V11.536H13.4631L15.3191 16.656C15.4364 16.9867 15.5484 17.328 15.6551 17.68C15.7724 18.0213 15.8844 18.3627 15.9911 18.704H16.0551C16.1724 18.3627 16.2844 18.0213 16.3911 17.68C16.4977 17.328 16.6044 16.9867 16.7111 16.656L18.5191 11.536H20.6311V22H18.9191V17.216C18.9191 16.8853 18.9297 16.528 18.9511 16.144C18.9831 15.7493 19.0151 15.3547 19.0471 14.96C19.0897 14.5653 19.1271 14.208 19.1591 13.888H19.0951L18.2471 16.32L16.5351 21.024H15.4311L13.7031 16.32L12.8711 13.888H12.8071C12.8391 14.208 12.8711 14.5653 12.9031 14.96C12.9457 15.3547 12.9777 15.7493 12.9991 16.144C13.0311 16.528 13.0471 16.8853 13.0471 17.216V22H11.3671Z" fill="white"/>
<rect x="0.5" y="0.5" width="31" height="31" rx="3.5" stroke="#252525" stroke-opacity="0.12"/>
</svg>
