<svg width="20" height="20" viewBox="0 0 20 20" fill="none" xmlns="http://www.w3.org/2000/svg">
<path d="M11.5 2C11.5 1.44772 11.9477 1 12.5 1H18C18.5523 1 19 1.44772 19 2V6C19 6.55228 18.5523 7 18 7H12.5C11.9477 7 11.5 6.55228 11.5 6V2Z" stroke="#18293B" stroke-width="1.25" stroke-linecap="round" stroke-linejoin="round"/>
<path d="M11.5 11C11.5 10.4477 11.9477 10 12.5 10H18C18.5523 10 19 10.4477 19 11V18C19 18.5523 18.5523 19 18 19H12.5C11.9477 19 11.5 18.5523 11.5 18V11Z" stroke="#18293B" stroke-width="1.25" stroke-linecap="round" stroke-linejoin="round"/>
<path d="M1 14C1 13.4477 1.44772 13 2 13H7.5C8.05228 13 8.5 13.4477 8.5 14V18C8.5 18.5523 8.05228 19 7.5 19H2C1.44772 19 1 18.5523 1 18V14Z" stroke="#18293B" stroke-width="1.25" stroke-linecap="round" stroke-linejoin="round"/>
<path d="M1 2C1 1.44772 1.44772 1 2 1H7.5C8.05228 1 8.5 1.44772 8.5 2V9C8.5 9.55228 8.05228 10 7.5 10H2C1.44772 10 1 9.55228 1 9V2Z" stroke="#18293B" stroke-width="1.25" stroke-linecap="round" stroke-linejoin="round"/>
</svg>
